<?xml version="1.0" encoding="UTF-8" standalone="no"?>
<!DOCTYPE svg PUBLIC "-//W3C//DTD SVG 1.1//EN" "http://www.w3.org/Graphics/SVG/1.1/DTD/svg11.dtd">
<!-- Created with Vectornator (http://vectornator.io/) -->
<svg height="100%" stroke-miterlimit="10" style="fill-rule:nonzero;clip-rule:evenodd;stroke-linecap:round;stroke-linejoin:round;" version="1.1" viewBox="0 0 1500 500" width="100%" xml:space="preserve" xmlns="http://www.w3.org/2000/svg" xmlns:vectornator="http://vectornator.io" xmlns:xlink="http://www.w3.org/1999/xlink">
<defs/>
<path d="M0 0L1500 0L1500 500L0 500L0 0Z" fill="#265a27" fill-rule="nonzero" opacity="1" stroke="none"/>
<g id="Layer-1" vectornator:layerName="Layer 1">
<g fill="#ffffff" opacity="1" stroke="none" vectornator:layerName="Text 1">
<path d="M296.576 187.165L213.582 187.165L213.582 225.236L286.244 225.236L286.244 253.986L213.582 253.986L213.582 323.39L179.217 323.39L179.217 158.078L296.576 158.078L296.576 187.165Z"/>
<path d="M321.732 214.23C330.192 203.449 344.717 198.058 365.306 198.058C378.708 198.058 390.612 200.716 401.019 206.032C411.426 211.348 416.629 221.38 416.629 236.13L416.629 292.282C416.629 296.175 416.704 300.892 416.854 306.432C417.078 310.625 417.715 313.47 418.763 314.967C419.811 316.465 421.384 317.7 423.48 318.674L423.48 323.39L388.665 323.39C387.692 320.92 387.018 318.599 386.644 316.427C386.27 314.256 385.97 311.785 385.745 309.015C381.328 313.807 376.237 317.887 370.472 321.257C363.584 325.225 355.798 327.209 347.113 327.209C336.032 327.209 326.879 324.045 319.654 317.719C312.429 311.392 308.817 302.427 308.817 290.822C308.817 275.773 314.619 264.88 326.224 258.141C332.588 254.473 341.947 251.852 354.3 250.28L365.194 248.932C371.108 248.184 375.339 247.248 377.884 246.125C382.451 244.178 384.735 241.146 384.735 237.028C384.735 232.012 382.994 228.549 379.513 226.64C376.031 224.731 370.921 223.776 364.183 223.776C356.621 223.776 351.268 225.648 348.123 229.391C345.877 232.161 344.38 235.905 343.631 240.622L312.747 240.622C313.421 229.915 316.416 221.118 321.732 214.23ZM345.54 300.256C348.535 302.726 352.204 303.962 356.546 303.962C363.434 303.962 369.779 301.94 375.582 297.897C381.384 293.854 384.398 286.48 384.622 275.773L384.622 263.869C382.601 265.142 380.561 266.171 378.502 266.957C376.443 267.743 373.617 268.473 370.023 269.147L362.835 270.495C356.097 271.693 351.268 273.153 348.348 274.875C343.407 277.795 340.936 282.324 340.936 288.464C340.936 293.929 342.471 297.86 345.54 300.256Z"/>
<path d="M477.948 200.978L477.948 323.39L445.492 323.39L445.492 200.978L477.948 200.978ZM477.948 156.842L477.948 186.379L445.492 186.379L445.492 156.842L477.948 156.842Z"/>
<path d="M564.984 300.592L564.984 324.513L549.823 325.075C534.699 325.599 524.367 322.979 518.827 317.214C515.233 313.545 513.436 307.892 513.436 300.256L513.436 224.899L496.366 224.899L496.366 202.101L513.436 202.101L513.436 167.961L545.106 167.961L545.106 202.101L564.984 202.101L564.984 224.899L545.106 224.899L545.106 289.587C545.106 294.603 545.742 297.729 547.015 298.964C548.288 300.199 552.181 300.817 558.695 300.817C559.668 300.817 560.697 300.798 561.783 300.761C562.869 300.723 563.936 300.667 564.984 300.592Z"/>
<path d="M696.156 251.515L696.156 323.39L663.475 323.39L663.475 248.932C663.475 242.344 662.352 237.028 660.106 232.985C657.186 227.295 651.646 224.45 643.485 224.45C635.024 224.45 628.604 227.276 624.224 232.929C619.845 238.582 617.655 246.649 617.655 257.131L617.655 323.39L585.76 323.39L585.76 158.415L617.655 158.415L617.655 216.925C622.297 209.813 627.668 204.853 633.77 202.045C639.872 199.237 646.292 197.834 653.031 197.834C660.592 197.834 667.462 199.144 673.639 201.764C679.815 204.385 684.888 208.39 688.856 213.781C692.225 218.348 694.284 223.046 695.033 227.875C695.781 232.704 696.156 240.584 696.156 251.515Z"/>
<path d="M726.703 157.853L758.709 157.853L758.709 323.39L726.703 323.39L726.703 157.853Z"/>
<path d="M822.835 200.978L822.835 323.39L790.379 323.39L790.379 200.978L822.835 200.978ZM822.835 156.842L822.835 186.379L790.379 186.379L790.379 156.842L822.835 156.842Z"/>
<path d="M911.219 156.842L911.219 182.897C909.422 182.673 906.409 182.504 902.179 182.392C897.948 182.279 895.029 183.215 893.419 185.199C891.809 187.183 891.004 189.373 891.004 191.769L891.004 202.101L912.005 202.101L912.005 224.674L891.004 224.674L891.004 323.39L859.11 323.39L859.11 224.674L841.253 224.674L841.253 202.101L858.773 202.101L858.773 194.24C858.773 181.138 860.981 172.116 865.399 167.174C870.041 159.837 881.234 156.169 898.978 156.169C900.999 156.169 902.834 156.225 904.481 156.337C906.128 156.449 908.374 156.618 911.219 156.842Z"/>
<path d="M1035.2 287.453C1034.38 294.715 1030.6 302.09 1023.86 309.577C1013.38 321.481 998.704 327.433 979.837 327.433C964.264 327.433 950.526 322.417 938.621 312.384C926.717 302.352 920.765 286.03 920.765 263.42C920.765 242.231 926.137 225.985 936.881 214.679C947.625 203.374 961.569 197.721 978.714 197.721C988.897 197.721 998.068 199.631 1006.23 203.449C1014.39 207.267 1021.13 213.294 1026.44 221.53C1031.24 228.792 1034.34 237.215 1035.77 246.799C1036.59 252.414 1036.93 260.5 1036.78 271.056L952.996 271.056C953.446 283.335 957.301 291.945 964.564 296.886C968.981 299.956 974.297 301.491 980.511 301.491C987.1 301.491 992.453 299.619 996.571 295.876C998.817 293.854 1000.8 291.047 1002.52 287.453L1035.2 287.453ZM1003.53 249.943C1003.01 241.483 1000.45 235.063 995.841 230.683C991.236 226.303 985.527 224.113 978.714 224.113C971.302 224.113 965.556 226.434 961.475 231.076C957.395 235.718 954.831 242.007 953.783 249.943L1003.53 249.943Z"/>
<path d="M1059.04 307.29C1059.04 302.384 1060.84 298.167 1064.45 294.64C1068.05 291.114 1072.38 289.35 1077.44 289.35C1082.35 289.35 1086.64 291.037 1090.32 294.41C1094 297.784 1095.84 301.924 1095.84 306.83C1095.84 311.737 1094.04 315.954 1090.44 319.48C1086.83 323.007 1082.5 324.77 1077.44 324.77C1074.99 324.77 1072.65 324.31 1070.43 323.39C1068.2 322.47 1066.25 321.244 1064.56 319.71C1062.88 318.177 1061.53 316.337 1060.54 314.19C1059.54 312.044 1059.04 309.744 1059.04 307.29Z"/>
<path d="M1127.12 307.29C1127.12 302.384 1128.92 298.167 1132.53 294.64C1136.13 291.114 1140.46 289.35 1145.52 289.35C1150.43 289.35 1154.72 291.037 1158.4 294.41C1162.08 297.784 1163.92 301.924 1163.92 306.83C1163.92 311.737 1162.12 315.954 1158.52 319.48C1154.91 323.007 1150.58 324.77 1145.52 324.77C1143.07 324.77 1140.73 324.31 1138.51 323.39C1136.28 322.47 1134.33 321.244 1132.64 319.71C1130.96 318.177 1129.61 316.337 1128.62 314.19C1127.62 312.044 1127.12 309.744 1127.12 307.29Z"/>
</g>
</g>
</svg>
