<?xml version="1.0" encoding="UTF-8" standalone="no"?>
<!DOCTYPE svg PUBLIC "-//W3C//DTD SVG 1.1//EN" "http://www.w3.org/Graphics/SVG/1.1/DTD/svg11.dtd">
<!-- Created with Vectornator (http://vectornator.io/) -->
<svg height="100%" stroke-miterlimit="10" style="fill-rule:nonzero;clip-rule:evenodd;stroke-linecap:round;stroke-linejoin:round;" version="1.1" viewBox="0 0 820 156" width="100%" xml:space="preserve" xmlns="http://www.w3.org/2000/svg" xmlns:vectornator="http://vectornator.io" xmlns:xlink="http://www.w3.org/1999/xlink">
<defs/>
<path d="M0 0L820 0L820 156L0 156L0 0Z" fill="#000000" fill-rule="nonzero" opacity="1" stroke="none"/>
<g id="Layer-1" vectornator:layerName="Layer 1">
<g fill="#ffffff" opacity="1" stroke="none" vectornator:layerName="Text 1">
<path d="M105.39 30.0173L33.2223 30.0173L33.2223 63.1228L96.4059 63.1228L96.4059 88.1228L33.2223 88.1228L33.2223 148.474L3.33949 148.474L3.33949 4.72433L105.39 4.72433L105.39 30.0173Z"/>
<path d="M127.265 53.5525C134.622 44.1775 147.252 39.49 165.156 39.49C176.81 39.49 187.161 41.8012 196.211 46.4235C205.26 51.0459 209.785 59.7699 209.785 72.5954L209.785 121.424C209.785 124.809 209.85 128.911 209.98 133.728C210.175 137.374 210.729 139.848 211.64 141.15C212.552 142.452 213.919 143.526 215.742 144.373L215.742 148.474L185.468 148.474C184.622 146.326 184.036 144.308 183.711 142.42C183.385 140.532 183.125 138.383 182.929 135.974C179.088 140.141 174.661 143.689 169.648 146.619C163.658 150.069 156.888 151.795 149.336 151.795C139.7 151.795 131.741 149.044 125.459 143.543C119.176 138.041 116.035 130.245 116.035 120.154C116.035 107.068 121.08 97.5954 131.172 91.736C136.705 88.5459 144.843 86.2673 155.586 84.9001L165.058 83.7282C170.201 83.0772 173.88 82.2634 176.093 81.2868C180.065 79.5941 182.05 76.9574 182.05 73.3767C182.05 69.0147 180.537 66.0036 177.509 64.3435C174.482 62.6833 170.039 61.8532 164.179 61.8532C157.604 61.8532 152.949 63.4808 150.214 66.736C148.261 69.1449 146.959 72.4001 146.308 76.5017L119.453 76.5017C120.039 67.1918 122.643 59.542 127.265 53.5525ZM147.968 128.357C150.573 130.506 153.763 131.58 157.539 131.58C163.528 131.58 169.046 129.822 174.091 126.306C179.137 122.791 181.757 116.378 181.953 107.068L181.953 96.7165C180.195 97.8233 178.421 98.7185 176.631 99.4021C174.84 100.086 172.382 100.72 169.257 101.306L163.007 102.478C157.148 103.52 152.949 104.789 150.41 106.287C146.113 108.826 143.964 112.765 143.964 118.103C143.964 122.856 145.299 126.274 147.968 128.357Z"/>
<path d="M263.105 42.029L263.105 148.474L234.882 148.474L234.882 42.029L263.105 42.029ZM263.105 3.65011L263.105 29.3337L234.882 29.3337L234.882 3.65011L263.105 3.65011Z"/>
<path d="M338.789 128.65L338.789 149.451L325.605 149.939C312.454 150.395 303.47 148.116 298.652 143.103C295.527 139.913 293.964 134.998 293.964 128.357L293.964 62.8298L279.121 62.8298L279.121 43.0056L293.964 43.0056L293.964 13.3181L321.504 13.3181L321.504 43.0056L338.789 43.0056L338.789 62.8298L321.504 62.8298L321.504 119.08C321.504 123.442 322.057 126.16 323.164 127.234C324.27 128.308 327.656 128.845 333.32 128.845C334.166 128.845 335.061 128.829 336.006 128.797C336.95 128.764 337.877 128.715 338.789 128.65Z"/>
<path d="M452.851 85.9743L452.851 148.474L424.433 148.474L424.433 83.7282C424.433 77.9991 423.457 73.3767 421.504 69.861C418.964 64.9131 414.147 62.4392 407.05 62.4392C399.694 62.4392 394.111 64.8969 390.302 69.8122C386.494 74.7276 384.589 81.7426 384.589 90.8571L384.589 148.474L356.855 148.474L356.855 5.0173L384.589 5.0173L384.589 55.8962C388.626 49.7113 393.297 45.3982 398.603 42.9568C403.909 40.5153 409.492 39.2946 415.351 39.2946C421.927 39.2946 427.9 40.434 433.271 42.7126C438.642 44.9913 443.053 48.4743 446.504 53.1618C449.433 57.1332 451.224 61.2185 451.875 65.4177C452.526 69.6169 452.851 76.4691 452.851 85.9743Z"/>
<path d="M479.414 4.52902L507.246 4.52902L507.246 148.474L479.414 148.474L479.414 4.52902Z"/>
<path d="M563.007 42.029L563.007 148.474L534.785 148.474L534.785 42.029L563.007 42.029ZM563.007 3.65011L563.007 29.3337L534.785 29.3337L534.785 3.65011L563.007 3.65011Z"/>
<path d="M639.863 3.65011L639.863 26.3064C638.3 26.111 635.68 25.9646 632.002 25.8669C628.323 25.7693 625.784 26.5831 624.384 28.3083C622.985 30.0336 622.285 31.9379 622.285 34.0212L622.285 43.0056L640.547 43.0056L640.547 62.6345L622.285 62.6345L622.285 148.474L594.55 148.474L594.55 62.6345L579.023 62.6345L579.023 43.0056L594.257 43.0056L594.257 36.1696C594.257 24.7764 596.178 16.9314 600.019 12.6345C604.056 6.25428 613.789 3.06417 629.218 3.06417C630.976 3.06417 632.571 3.113 634.004 3.21066C635.436 3.30831 637.389 3.4548 639.863 3.65011Z"/>
<path d="M747.675 117.224C746.959 123.539 743.672 129.952 737.812 136.463C728.698 146.814 715.937 151.99 699.531 151.99C685.989 151.99 674.043 147.628 663.691 138.904C653.339 130.18 648.164 115.987 648.164 96.3259C648.164 77.9014 652.835 63.7738 662.177 53.9431C671.52 44.1124 683.645 39.197 698.554 39.197C707.408 39.197 715.384 40.8571 722.48 44.1775C729.576 47.4978 735.436 52.7387 740.058 59.9001C744.225 66.2152 746.927 73.5394 748.164 81.8728C748.88 86.7556 749.173 93.7868 749.043 102.967L676.191 102.967C676.582 113.644 679.935 121.131 686.25 125.427C690.091 128.097 694.713 129.431 700.117 129.431C705.846 129.431 710.501 127.804 714.082 124.549C716.035 122.791 717.76 120.349 719.257 117.224L747.675 117.224ZM720.136 84.6071C719.681 77.2504 717.451 71.6677 713.447 67.8591C709.443 64.0505 704.479 62.1462 698.554 62.1462C692.109 62.1462 687.112 64.1644 683.564 68.2009C680.016 72.2374 677.786 77.7061 676.875 84.6071L720.136 84.6071Z"/>
<path d="M767.304 119.373L796.894 119.373L796.894 148.474L767.304 148.474L767.304 119.373Z"/>
</g>
</g>
</svg>
