<?xml version="1.0" encoding="UTF-8" standalone="no"?>
<!DOCTYPE svg PUBLIC "-//W3C//DTD SVG 1.1//EN" "http://www.w3.org/Graphics/SVG/1.1/DTD/svg11.dtd">
<!-- Created with Vectornator (http://vectornator.io/) -->
<svg height="100%" stroke-miterlimit="10" style="fill-rule:nonzero;clip-rule:evenodd;stroke-linecap:round;stroke-linejoin:round;" version="1.1" viewBox="0 0 820 240" width="100%" xml:space="preserve" xmlns="http://www.w3.org/2000/svg" xmlns:vectornator="http://vectornator.io" xmlns:xlink="http://www.w3.org/1999/xlink">
<defs/>
<path d="M0 0L820 0L820 240L0 240L0 0Z" fill="#265a27" fill-rule="nonzero" opacity="1" stroke="none"/>
<g id="Layer-1" vectornator:layerName="Layer 1">
<g fill="#ffffff" opacity="1" stroke="none" vectornator:layerName="Text 1">
<path d="M135.319 75.543L63.1511 75.543L63.1511 108.648L126.335 108.648L126.335 133.648L63.1511 133.648L63.1511 194L33.2683 194L33.2683 50.25L135.319 50.25L135.319 75.543Z"/>
<path d="M157.194 99.0781C164.551 89.7031 177.181 85.0156 195.085 85.0156C206.738 85.0156 217.09 87.3268 226.139 91.9492C235.189 96.5716 239.714 105.296 239.714 118.121L239.714 166.949C239.714 170.335 239.779 174.436 239.909 179.254C240.104 182.9 240.658 185.374 241.569 186.676C242.481 187.978 243.848 189.052 245.671 189.898L245.671 194L215.397 194C214.551 191.852 213.965 189.833 213.639 187.945C213.314 186.057 213.053 183.909 212.858 181.5C209.017 185.667 204.59 189.215 199.577 192.145C193.587 195.595 186.816 197.32 179.264 197.32C169.629 197.32 161.67 194.57 155.387 189.068C149.105 183.567 145.964 175.771 145.964 165.68C145.964 152.594 151.009 143.121 161.1 137.262C166.634 134.072 174.772 131.793 185.514 130.426L194.987 129.254C200.13 128.603 203.809 127.789 206.022 126.812C209.994 125.12 211.979 122.483 211.979 118.902C211.979 114.54 210.466 111.529 207.438 109.869C204.411 108.209 199.968 107.379 194.108 107.379C187.533 107.379 182.878 109.007 180.143 112.262C178.19 114.671 176.888 117.926 176.237 122.027L149.382 122.027C149.968 112.717 152.572 105.068 157.194 99.0781ZM177.897 173.883C180.501 176.031 183.691 177.105 187.468 177.105C193.457 177.105 198.975 175.348 204.02 171.832C209.066 168.316 211.686 161.904 211.882 152.594L211.882 142.242C210.124 143.349 208.35 144.244 206.559 144.928C204.769 145.611 202.311 146.246 199.186 146.832L192.936 148.004C187.077 149.046 182.878 150.315 180.339 151.812C176.042 154.352 173.893 158.29 173.893 163.629C173.893 168.382 175.228 171.799 177.897 173.883Z"/>
<path d="M293.034 87.5547L293.034 194L264.811 194L264.811 87.5547L293.034 87.5547ZM293.034 49.1758L293.034 74.8594L264.811 74.8594L264.811 49.1758L293.034 49.1758Z"/>
<path d="M368.718 174.176L368.718 194.977L355.534 195.465C342.383 195.921 333.398 193.642 328.581 188.629C325.456 185.439 323.893 180.523 323.893 173.883L323.893 108.355L309.05 108.355L309.05 88.5312L323.893 88.5312L323.893 58.8438L351.432 58.8438L351.432 88.5312L368.718 88.5312L368.718 108.355L351.432 108.355L351.432 164.605C351.432 168.967 351.986 171.686 353.093 172.76C354.199 173.834 357.585 174.371 363.249 174.371C364.095 174.371 364.99 174.355 365.934 174.322C366.878 174.29 367.806 174.241 368.718 174.176Z"/>
<path d="M482.78 131.5L482.78 194L454.362 194L454.362 129.254C454.362 123.525 453.385 118.902 451.432 115.387C448.893 110.439 444.076 107.965 436.979 107.965C429.622 107.965 424.04 110.423 420.231 115.338C416.423 120.253 414.518 127.268 414.518 136.383L414.518 194L386.784 194L386.784 50.543L414.518 50.543L414.518 101.422C418.555 95.237 423.226 90.9238 428.532 88.4824C433.838 86.041 439.421 84.8203 445.28 84.8203C451.856 84.8203 457.829 85.9596 463.2 88.2383C468.571 90.5169 472.982 94 476.432 98.6875C479.362 102.659 481.152 106.744 481.803 110.943C482.454 115.143 482.78 121.995 482.78 131.5Z"/>
<path d="M509.343 50.0547L537.175 50.0547L537.175 194L509.343 194L509.343 50.0547Z"/>
<path d="M592.936 87.5547L592.936 194L564.714 194L564.714 87.5547L592.936 87.5547ZM592.936 49.1758L592.936 74.8594L564.714 74.8594L564.714 49.1758L592.936 49.1758Z"/>
<path d="M669.792 49.1758L669.792 71.832C668.229 71.6367 665.609 71.4902 661.93 71.3926C658.252 71.2949 655.713 72.1087 654.313 73.834C652.913 75.5592 652.214 77.4635 652.214 79.5469L652.214 88.5312L670.475 88.5312L670.475 108.16L652.214 108.16L652.214 194L624.479 194L624.479 108.16L608.952 108.16L608.952 88.5312L624.186 88.5312L624.186 81.6953C624.186 70.3021 626.107 62.457 629.948 58.1602C633.984 51.7799 643.718 48.5898 659.147 48.5898C660.905 48.5898 662.5 48.6387 663.932 48.7363C665.365 48.834 667.318 48.9805 669.792 49.1758Z"/>
<path d="M777.604 162.75C776.888 169.065 773.6 175.478 767.741 181.988C758.626 192.34 745.866 197.516 729.46 197.516C715.918 197.516 703.971 193.154 693.62 184.43C683.268 175.706 678.093 161.513 678.093 141.852C678.093 123.427 682.764 109.299 692.106 99.4688C701.449 89.638 713.574 84.7227 728.483 84.7227C737.337 84.7227 745.313 86.3828 752.409 89.7031C759.505 93.0234 765.365 98.2643 769.987 105.426C774.154 111.741 776.856 119.065 778.093 127.398C778.809 132.281 779.102 139.312 778.971 148.492L706.12 148.492C706.51 159.169 709.863 166.656 716.178 170.953C720.02 173.622 724.642 174.957 730.046 174.957C735.775 174.957 740.43 173.329 744.01 170.074C745.964 168.316 747.689 165.875 749.186 162.75L777.604 162.75ZM750.065 130.133C749.609 122.776 747.38 117.193 743.376 113.385C739.372 109.576 734.408 107.672 728.483 107.672C722.038 107.672 717.041 109.69 713.493 113.727C709.945 117.763 707.715 123.232 706.803 130.133L750.065 130.133Z"/>
</g>
</g>
</svg>
